HIERARCHY
ROOT Hips
{
	OFFSET 0.000000 91.145912 0.000000
	CHANNELS 6 Xposition Yposition Zposition Xrotation Yrotation Zrotation
	JOINT RightUpLeg
	{
		OFFSET -7.978616 0.020706 -0.002301
		CHANNELS 6 Xposition Yposition Zposition Xrotation Yrotation Zrotation
		JOINT RightLeg
		{
			OFFSET 0.000000 -41.199947 -0.001895
			CHANNELS 6 Xposition Yposition Zposition Xrotation Yrotation Zrotation
			JOINT RightFoot
			{
				OFFSET 0.000000 -40.188824 -0.003193
				CHANNELS 6 Xposition Yposition Zposition Xrotation Yrotation Zrotation
				JOINT RightToeBase
				{
					OFFSET 0.000000 -7.939033 18.143217
					CHANNELS 6 Xposition Yposition Zposition Xrotation Yrotation Zrotation
					End Site
					{
						OFFSET 0.000000 19.804155 0.000000
					}
				}
			}
		}
	}
	JOINT LeftUpLeg
	{
		OFFSET 7.978616 0.018532 -0.002059
		CHANNELS 6 Xposition Yposition Zposition Xrotation Yrotation Zrotation
		JOINT LeftLeg
		{
			OFFSET 0.000000 -41.199947 -0.001895
			CHANNELS 6 Xposition Yposition Zposition Xrotation Yrotation Zrotation
			JOINT LeftFoot
			{
				OFFSET 0.000000 -40.188824 -0.003193
				CHANNELS 6 Xposition Yposition Zposition Xrotation Yrotation Zrotation
				JOINT LeftToeBase
				{
					OFFSET 0.000000 -7.939033 18.143217
					CHANNELS 6 Xposition Yposition Zposition Xrotation Yrotation Zrotation
					End Site
					{
						OFFSET 0.000000 19.804155 0.000000
					}
				}
			}
		}
	}
	JOINT Spine
	{
		OFFSET 0.000000 9.664871 -1.073875
		CHANNELS 6 Xposition Yposition Zposition Xrotation Yrotation Zrotation
		JOINT Spine1
		{
			OFFSET 0.000000 10.672615 0.000000
			CHANNELS 3 Xrotation Yrotation Zrotation
			JOINT Spine2
			{
				OFFSET 0.000000 9.745026 -0.008016
				CHANNELS 6 Xposition Yposition Zposition Xrotation Yrotation Zrotation
				JOINT Spine3
				{
					OFFSET 0.000000 9.734146 -0.008024
					CHANNELS 6 Xposition Yposition Zposition Xrotation Yrotation Zrotation
					JOINT LeftShoulder
					{
						OFFSET 2.982571 7.645615 0.000000
						CHANNELS 6 Xposition Yposition Zposition Xrotation Yrotation Zrotation
						JOINT LeftArm
						{
							OFFSET 14.068447 0.000000 0.000000
							CHANNELS 6 Xposition Yposition Zposition Xrotation Yrotation Zrotation
							JOINT LeftForeArm
							{
								OFFSET 30.140327 0.000000 0.000000
								CHANNELS 6 Xposition Yposition Zposition Xrotation Yrotation Zrotation
								JOINT LeftHand
								{
									OFFSET 24.636414 0.000000 0.000000
									CHANNELS 6 Xposition Yposition Zposition Xrotation Yrotation Zrotation
									End Site
									{
										OFFSET 0.000000 24.636414 0.000000
									}
								}
							}
						}
					}
					JOINT RightShoulder
					{
						OFFSET -2.982571 7.645615 0.000000
						CHANNELS 6 Xposition Yposition Zposition Xrotation Yrotation Zrotation
						JOINT RightArm
						{
							OFFSET -14.068447 0.000000 0.000000
							CHANNELS 6 Xposition Yposition Zposition Xrotation Yrotation Zrotation
							JOINT RightForeArm
							{
								OFFSET -30.140327 0.000000 0.000000
								CHANNELS 6 Xposition Yposition Zposition Xrotation Yrotation Zrotation
								JOINT RightHand
								{
									OFFSET -24.636414 0.000000 0.000000
									CHANNELS 6 Xposition Yposition Zposition Xrotation Yrotation Zrotation
									JOINT Prop1
									{
										OFFSET -9.043953 -1.004883 2.009767
										CHANNELS 6 Xposition Yposition Zposition Xrotation Yrotation Zrotation
										End Site
										{
											OFFSET 0.000000 9.318909 0.000000
										}
									}
								}
							}
						}
					}
					JOINT Neck
					{
						OFFSET 0.000000 13.630920 0.000000
						CHANNELS 6 Xposition Yposition Zposition Xrotation Yrotation Zrotation
						JOINT Head
						{
							OFFSET 0.000000 9.064621 0.017240
							CHANNELS 6 Xposition Yposition Zposition Xrotation Yrotation Zrotation
							End Site
							{
								OFFSET 0.000000 9.064636 0.000000
							}
						}
					}
				}
			}
		}
	}
}
MOTION
Frames: 6
Frame Time: 0.008333
0.000000 91.145912 0.000000 -0.000000 0.000000 -0.000000 -7.978616 0.020706 -0.002301 -0.000000 0.000000 -0.000000 0.000000 -41.199947 -0.001895 -0.000000 0.000000 -0.000000 0.000000 -40.188824 -0.003193 -0.000000 0.000000 -0.000000 0.000000 -7.939033 18.143217 -0.000000 0.000000 -0.000000 7.978616 0.018532 -0.002059 -0.000000 0.000000 -0.000000 0.000000 -41.199947 -0.001895 -0.000000 0.000000 -0.000000 0.000000 -40.188824 -0.003193 -0.000000 0.000000 -0.000000 0.000000 -7.939033 18.143217 -0.000000 0.000000 -0.000000 0.000000 9.664871 -1.073875 -0.000000 0.000000 -0.000000 -0.000000 0.000000 -0.000000 0.000000 9.745026 -0.008016 -0.000000 0.000000 -0.000000 0.000000 9.734146 -0.008024 -0.000000 0.000000 -0.000000 2.982571 7.645615 0.000000 -0.000000 0.000000 -0.000000 14.068447 0.000000 0.000000 -0.000000 0.000000 -0.000000 30.140327 0.000000 0.000000 -0.000000 0.000000 -0.000000 24.636414 0.000000 0.000000 -0.000000 0.000000 -0.000000 -2.982571 7.645615 0.000000 -0.000000 0.000000 -0.000000 -14.068447 0.000000 0.000000 -0.000000 0.000000 -0.000000 -30.140327 0.000000 0.000000 -0.000000 0.000000 -0.000000 -24.636414 0.000000 0.000000 -0.000000 0.000000 -0.000000 -9.043953 -1.004883 2.009767 -0.000000 0.000000 -0.000000 0.000000 13.630920 0.000000 -0.000000 0.000000 -0.000000 0.000000 9.064621 0.017240 -0.000000 0.000000 -0.000000 
-12.805660 89.311241 66.315460 12.662635 -39.310177 9.330292 -7.978619 0.020706 -0.002301 -5.339177 -16.860710 -9.453007 -0.000004 -41.199947 -0.001887 8.597135 -1.551994 0.731096 0.000006 -40.188824 -0.003195 -11.744855 -2.140582 8.881163 0.000002 -7.939034 18.143217 -0.000000 0.000000 -0.000000 7.978611 0.018538 -0.002060 -12.201293 18.718752 12.634619 -0.000005 -41.199940 -0.001902 5.461933 3.005229 -0.448991 -0.000000 -40.188828 -0.003183 -1.452928 -1.816141 -15.173328 -0.000000 -7.939033 18.143227 -0.000000 0.000001 0.000000 -0.000000 9.664883 -1.073873 -2.927453 0.014621 -1.340192 -7.127158 0.058527 -0.592847 -0.000002 9.745019 -0.008017 -1.306725 0.058591 -0.592841 -0.000005 9.734162 -0.008041 4.856406 -0.002733 -0.446793 2.982565 7.645607 -0.000003 -0.771327 -0.783347 -7.509037 14.068452 0.000034 -0.000005 -8.647755 25.623386 -59.177340 30.140335 -0.000003 -0.000001 21.345808 -29.028615 0.069018 24.636408 0.000012 0.000000 20.397294 1.723687 -6.489224 -2.982575 7.645599 -0.000002 0.012531 -7.744812 7.205284 -14.068449 0.000019 -0.000004 6.580718 -12.971900 71.270989 -30.140326 0.000003 -0.000003 -4.308891 15.713236 4.099734 -24.636398 0.000007 0.000005 2.258780 -3.232944 -0.401884 -9.043960 -1.004884 2.009771 0.637308 -1.734451 -91.477133 -0.000008 13.630908 -0.000005 15.678766 11.800210 -4.762512 0.000002 9.064621 0.017237 -6.868726 23.209314 -4.421292 
-12.800790 89.308456 66.314034 12.617422 -39.285674 9.302151 -7.978619 0.020708 -0.002304 -5.318218 -16.867936 -9.457165 -0.000004 -41.199959 -0.001899 8.621538 -1.564640 0.728761 -0.000000 -40.188820 -0.003195 -11.770768 -2.147486 8.870555 0.000000 -7.939033 18.143217 0.000000 -0.000001 0.000000 7.978617 0.018533 -0.002061 -12.207386 18.721781 12.640471 -0.000007 -41.199940 -0.001901 5.512467 2.982629 -0.453783 -0.000003 -40.188820 -0.003196 -1.477445 -1.832823 -15.163594 -0.000001 -7.939034 18.143215 -0.000000 -0.000001 -0.000000 0.000002 9.664873 -1.073874 -2.906345 0.005775 -1.337818 -7.117755 0.054577 -0.592132 0.000003 9.745037 -0.008010 -1.297321 0.054637 -0.592127 -0.000004 9.734159 -0.008030 4.863465 -0.005616 -0.445950 2.982568 7.645617 0.000001 -0.762156 -0.780093 -7.515901 14.068447 0.000029 -0.000002 -8.635226 25.619905 -59.184511 30.140333 0.000002 -0.000010 21.326448 -29.018407 0.065524 24.636417 -0.000002 0.000006 20.417141 1.781550 -6.513370 -2.982571 7.645604 -0.000002 0.010037 -7.746590 7.207193 -14.068451 -0.000001 -0.000001 6.579051 -12.970208 71.261706 -30.140310 -0.000007 0.000002 -4.295147 15.707710 4.092905 -24.636419 -0.000007 0.000006 2.268427 -3.237803 -0.401759 -9.043922 -1.004880 2.009767 0.643222 -1.739093 -91.474210 -0.000001 13.630941 0.000000 15.684001 11.799793 -4.767570 -0.000000 9.064613 0.017241 -6.857611 23.210164 -4.431966 
-12.795450 89.305794 66.312729 12.574253 -39.260095 9.275311 -7.978612 0.020706 -0.002305 -5.298736 -16.875598 -9.461723 -0.000007 -41.199944 -0.001897 8.645303 -1.577948 0.726669 -0.000005 -40.188820 -0.003190 -11.796242 -2.153917 8.860168 -0.000001 -7.939033 18.143217 -0.000000 0.000001 0.000000 7.978619 0.018538 -0.002065 -12.214149 18.724658 12.645583 0.000003 -41.199944 -0.001893 5.560719 2.960304 -0.458618 -0.000001 -40.188831 -0.003189 -1.500871 -1.850214 -15.154014 -0.000001 -7.939033 18.143206 -0.000000 0.000001 0.000000 0.000005 9.664870 -1.073877 -2.885702 -0.003210 -1.335334 -7.108553 0.050565 -0.591376 0.000000 9.745035 -0.008006 -1.288120 0.050623 -0.591371 0.000001 9.734168 -0.008029 4.870370 -0.008543 -0.445072 2.982569 7.645621 -0.000000 -0.753627 -0.777081 -7.522347 14.068451 -0.000000 -0.000007 -8.622223 25.617222 -59.190754 30.140337 -0.000014 -0.000000 21.305501 -29.007629 0.060137 24.636425 0.000014 0.000017 20.439131 1.845468 -6.547060 -2.982570 7.645624 0.000005 0.006551 -7.748307 7.209190 -14.068467 -0.000006 0.000004 6.577856 -12.968615 71.251181 -30.140348 0.000003 -0.000005 -4.281021 15.702893 4.086154 -24.636414 0.000012 -0.000002 2.278221 -3.241905 -0.401596 -9.043965 -1.004882 2.009768 0.649361 -1.743252 -91.471287 0.000000 13.630927 0.000003 15.689129 11.799767 -4.772474 0.000002 9.064632 0.017239 -6.846769 23.211698 -4.442183 
-12.789680 89.303268 66.311546 12.532952 -39.233884 9.249789 -7.978617 0.020701 -0.002298 -5.280685 -16.883232 -9.466741 -0.000004 -41.199944 -0.001895 8.668512 -1.591542 0.724804 -0.000002 -40.188824 -0.003195 -11.820844 -2.160266 8.849979 -0.000001 -7.939033 18.143219 -0.000000 -0.000001 -0.000000 7.978615 0.018513 -0.002055 -12.220860 18.726265 12.649531 0.000005 -41.199947 -0.001900 5.606504 2.938680 -0.463145 0.000005 -40.188828 -0.003193 -1.523182 -1.867193 -15.144474 -0.000002 -7.939033 18.143219 -0.000000 0.000000 0.000000 -0.000002 9.664861 -1.073875 -2.865413 -0.011650 -1.332903 -7.099511 0.046792 -0.590623 0.000001 9.745030 -0.008017 -1.279080 0.046855 -0.590618 0.000003 9.734159 -0.008029 4.877155 -0.011289 -0.444215 2.982577 7.645622 -0.000001 -0.745684 -0.774253 -7.528338 14.068453 0.000006 -0.000002 -8.610407 25.614512 -59.195726 30.140322 -0.000016 0.000011 21.284205 -28.994614 0.052959 24.636404 -0.000003 0.000008 20.462835 1.912601 -6.596932 -2.982570 7.645614 -0.000002 0.003131 -7.750036 7.211524 -14.068444 -0.000012 -0.000001 6.576931 -12.967471 71.240342 -30.140335 -0.000014 0.000005 -4.267292 15.698604 4.079653 -24.636410 0.000000 -0.000000 2.287387 -3.244673 -0.401112 -9.043947 -1.004887 2.009760 0.655067 -1.746256 -91.468493 0.000005 13.630904 -0.000001 15.693823 11.799571 -4.776954 -0.000006 9.064635 0.017244 -6.836819 23.212748 -4.451582 
-12.783530 89.300919 66.310501 12.493386 -39.207557 9.225636 -7.978619 0.020696 -0.002304 -5.264031 -16.890414 -9.472313 0.000004 -41.199940 -0.001893 8.691254 -1.605044 0.723155 -0.000002 -40.188824 -0.003191 -11.844155 -2.166933 8.839956 0.000002 -7.939034 18.143217 -0.000000 0.000001 0.000000 7.978615 0.018524 -0.002061 -12.226810 18.725558 12.651864 -0.000001 -41.199951 -0.001886 5.649648 2.918191 -0.467020 0.000007 -40.188828 -0.003180 -1.544360 -1.882646 -15.134830 -0.000001 -7.939033 18.143230 -0.000000 -0.000000 -0.000000 -0.000005 9.664863 -1.073878 -2.845370 -0.018849 -1.330688 -7.090585 0.043568 -0.589918 -0.000000 9.745015 -0.008016 -1.270151 0.043632 -0.589914 0.000004 9.734149 -0.008017 4.883855 -0.013628 -0.443438 2.982579 7.645624 -0.000005 -0.738271 -0.771560 -7.533840 14.068456 0.000021 -0.000011 -8.601431 25.610981 -59.199141 30.140310 0.000020 -0.000002 21.263798 -28.977662 0.044036 24.636421 -0.000003 0.000013 20.487800 1.980095 -6.669575 -2.982564 7.645632 -0.000005 0.000833 -7.751831 7.214456 -14.068437 0.000004 -0.000002 6.576054 -12.967104 71.230089 -30.140348 -0.000002 -0.000003 -4.254743 15.694641 4.073568 -24.636406 -0.000003 -0.000003 2.295152 -3.245534 -0.400036 -9.043940 -1.004883 2.009770 0.659663 -1.747434 -91.465918 0.000005 13.630931 -0.000007 15.697790 11.798595 -4.780725 0.000001 9.064642 0.017232 -6.828375 23.212176 -4.459796 
